<svg xmlns="http://www.w3.org/2000/svg" viewBox="0 0 800 1000" font-family="Archivo, Arial, sans-serif">
  <defs>
    <filter id="grain3">
      <feTurbulence type="fractalNoise" baseFrequency="0.8" numOctaves="2" result="n"/>
      <feColorMatrix in="n" values="0 0 0 0 0  0 0 0 0 0  0 0 0 0 0  0 0 0 0.06 0" result="g"/>
      <feComposite in="g" in2="SourceGraphic" operator="over"/>
    </filter>
    <linearGradient id="trail" x1="0" y1="0" x2="1" y2="0">
      <stop offset="0%" stop-color="#2b50ff" stop-opacity="0"/>
      <stop offset="100%" stop-color="#2b50ff"/>
    </linearGradient>
  </defs>
  <g filter="url(#grain3)">
    <rect width="800" height="1000" fill="#0f0f10"/>
    <!-- Orbite -->
    <ellipse cx="400" cy="380" rx="300" ry="180" fill="none" stroke="#94908a" stroke-width="2" stroke-dasharray="3 12" transform="rotate(-18 400 380)"/>
    <!-- Traînées de mouvement -->
    <rect x="120" y="300" width="300" height="14" rx="7" fill="url(#trail)"/>
    <rect x="200" y="380" width="380" height="14" rx="7" fill="url(#trail)" opacity="0.7"/>
    <rect x="90" y="460" width="240" height="14" rx="7" fill="url(#trail)" opacity="0.45"/>
    <!-- Particule principale -->
    <circle cx="540" cy="307" r="46" fill="#2b50ff"/>
    <circle cx="540" cy="307" r="46" fill="none" stroke="#faf6ee" stroke-width="4"/>
    <circle cx="610" cy="387" r="22" fill="#faf6ee"/>
    <circle cx="360" cy="467" r="12" fill="#94908a"/>
    <!-- Nuée -->
    <g fill="#faf6ee">
      <circle cx="180" cy="200" r="4"/><circle cx="640" cy="170" r="5"/>
      <circle cx="700" cy="520" r="4"/><circle cx="130" cy="560" r="5"/>
      <circle cx="430" cy="130" r="3"/><circle cx="260" cy="640" r="3"/>
    </g>
    <!-- Bloc typographique -->
    <text x="62" y="800" font-size="96" font-weight="800" letter-spacing="-3" fill="#faf6ee">PARTICULE</text>
    <text x="66" y="850" font-size="30" font-weight="600" fill="#2b50ff">STUDIO DE MOTION DESIGN</text>
    <line x1="62" y1="886" x2="738" y2="886" stroke="#faf6ee" stroke-width="3"/>
    <text x="62" y="936" font-size="22" fill="#94908a">Animation de logo · habillage · reel 30s</text>
    <text x="738" y="936" font-size="22" fill="#faf6ee" text-anchor="end">N°03</text>
  </g>
</svg>
